<?xml version="1.0" encoding="UTF-8" standalone="no"?>
<!DOCTYPE svg PUBLIC "-//W3C//DTD SVG 1.1//EN" "http://www.w3.org/Graphics/SVG/1.1/DTD/svg11.dtd">
<svg version="1.1" xmlns="http://www.w3.org/2000/svg" xmlns:xlink="http://www.w3.org/1999/xlink" preserveAspectRatio="xMidYMid meet" viewBox="0 0 24 24" width="24" height="24"><defs><path d="M14.53 4.41L15.68 4.89L16.72 5.54L17.66 6.34L18.46 7.28L19.11 8.32L19.59 9.47L19.9 10.7L20 12L19.9 13.3L19.59 14.53L19.11 15.68L18.46 16.72L17.66 17.66L16.72 18.46L15.68 19.11L14.53 19.59L13.3 19.9L12 20L10.7 19.9L9.47 19.59L8.32 19.11L7.28 18.46L6.34 17.66L5.54 16.72L4.89 15.68L4.41 14.53L4.1 13.3L4 12L4.1 10.7L4.41 9.47L4.89 8.32L5.54 7.28L6.34 6.34L7.28 5.54L8.32 4.89L9.47 4.41L10.7 4.1L12 4L13.3 4.1L14.53 4.41ZM9.36 6.61L8.25 7.32L7.32 8.25L6.61 9.36L6.16 10.62L6 12L6.16 13.38L6.61 14.64L7.32 15.75L8.25 16.68L9.36 17.39L10.62 17.84L12 18L13.38 17.84L14.64 17.39L15.75 16.68L16.68 15.75L17.39 14.64L17.84 13.38L18 12L17.84 10.62L17.39 9.36L16.68 8.25L15.75 7.32L14.64 6.61L13.38 6.16L12 6L10.62 6.16L9.36 6.61Z" id="a5iof5dxb"></path></defs><g><g><g><use xlink:href="#a5iof5dxb" opacity="1" fill="#000000" fill-opacity="1"></use></g></g></g></svg>