<?xml version="1.0" encoding="UTF-8" standalone="no"?>
<!DOCTYPE svg PUBLIC "-//W3C//DTD SVG 1.1//EN" "http://www.w3.org/Graphics/SVG/1.1/DTD/svg11.dtd">
<svg version="1.1" xmlns="http://www.w3.org/2000/svg" xmlns:xlink="http://www.w3.org/1999/xlink" preserveAspectRatio="xMidYMid meet" viewBox="0 0 24 24" width="24" height="24"><defs><path d="M12.2 0.55L12.25 0.56L12.3 0.57L12.35 0.58L12.39 0.59L12.44 0.61L12.49 0.63L12.53 0.65L12.57 0.67L12.62 0.69L12.66 0.72L12.7 0.75L21.75 5.83L21.8 5.86L21.84 5.89L21.89 5.92L21.93 5.95L21.97 5.98L22.01 6.02L22.05 6.06L22.08 6.09L22.09 6.11L22.12 6.12L22.37 6.5L22.4 6.62L22.42 6.66L22.45 6.78L22.45 6.86L22.47 6.97L22.45 7.09L22.45 9.67L22.45 9.68L22.45 9.78L22.45 9.8L22.45 9.86L22.43 9.86L22.42 9.92L22.35 10.02L22.24 10.1L22.11 10.12L20.26 10.12L20.13 10.1L20.02 10.02L19.95 9.92L19.94 9.86L19.92 9.86L19.92 9.8L19.92 9.78L19.92 9.68L19.92 9.67L19.92 8.79L13.87 12.16L13.3 12.49L13.3 20.29L14.4 19.67L14.46 19.65L14.51 19.62L14.51 19.63L14.55 19.62L14.7 19.63L14.84 19.7L14.94 19.82L15.68 21.12L15.72 21.27L15.71 21.42L15.64 21.56L15.56 21.63L15.57 21.65L14.41 22.3L14.39 22.31L14.3 22.35L12.66 23.28L12.66 23.28L12.62 23.31L12.57 23.33L12.53 23.35L12.49 23.37L12.44 23.39L12.39 23.41L12.35 23.42L12.3 23.43L12.25 23.44L12.2 23.45L12.15 23.46L12.1 23.46L12.05 23.46L11.99 23.46L11.94 23.46L11.89 23.45L11.84 23.44L11.79 23.43L11.74 23.42L11.7 23.41L11.65 23.39L11.6 23.37L11.56 23.35L11.52 23.33L11.47 23.31L11.43 23.28L11.39 23.25L2.34 18.17L2.26 18.12L2.19 18.07L2.12 18.02L2.06 17.96L2 17.89L1.94 17.82L1.9 17.75L1.85 17.68L1.82 17.6L1.79 17.51L1.76 17.43L1.74 17.34L1.73 17.25L1.73 17.16L1.73 10.81L1.66 10.85L1.58 10.88L1.5 10.91L1.42 10.93L1.33 10.95L1.25 10.95L1.17 10.96L1.08 10.96L1 10.95L0.91 10.93L0.83 10.91L0.75 10.88L0.66 10.85L0.58 10.81L0.47 10.73L0.36 10.65L0.27 10.55L0.19 10.45L0.13 10.34L0.08 10.23L0.04 10.11L0.01 9.99L0 9.86L0 9.73L0.02 9.61L0.05 9.48L0.1 9.36L0.16 9.24L1.88 6.27L1.91 6.22L1.94 6.18L1.97 6.13L2 6.09L2.04 6.05L2.08 6.01L2.11 5.98L2.15 5.94L2.2 5.91L2.24 5.88L2.28 5.86L2.33 5.83L2.37 5.81L2.42 5.79L11.39 0.75L11.43 0.72L11.47 0.69L11.52 0.67L11.56 0.65L11.6 0.63L11.65 0.61L11.7 0.59L11.74 0.58L11.79 0.57L11.84 0.56L11.89 0.55L11.94 0.54L11.99 0.54L12.05 0.54L12.1 0.54L12.15 0.54L12.15 0.54L12.2 0.55ZM20.65 11.62L20.66 11.62L20.66 11.62L20.67 11.62L20.67 11.63L20.68 11.63L20.69 11.63L20.69 11.63L20.7 11.63L20.7 11.64L20.71 11.64L20.71 11.64L20.72 11.64L20.72 11.65L20.73 11.65L20.73 11.66L20.74 11.66L20.74 11.66L20.74 11.67L20.75 11.67L20.75 11.68L20.75 11.68L20.76 11.69L20.76 11.69L20.76 11.69L20.77 11.7L20.77 11.71L20.77 11.71L20.77 11.72L20.78 11.72L20.78 11.73L20.78 11.73L20.78 11.74L20.78 11.74L20.78 11.75L20.78 11.76L20.78 11.76L20.78 11.77L20.78 14.76L23.85 14.76L23.85 14.76L23.86 14.76L23.87 14.76L23.87 14.76L23.88 14.76L23.88 14.76L23.89 14.76L23.9 14.76L23.9 14.76L23.91 14.77L23.91 14.77L23.92 14.77L23.92 14.77L23.93 14.78L23.93 14.78L23.94 14.78L23.94 14.79L23.95 14.79L23.95 14.79L23.96 14.8L23.96 14.8L23.96 14.81L23.97 14.81L23.97 14.82L23.97 14.82L23.98 14.83L23.98 14.83L23.98 14.84L23.99 14.84L23.99 14.85L23.99 14.85L23.99 14.86L23.99 14.86L24 14.87L24 14.87L24 14.88L24 14.89L24 14.89L24 14.9L24 14.9L24 17.29L24 17.3L24 17.31L24 17.31L24 17.32L24 17.32L24 17.33L23.99 17.34L23.99 17.34L23.99 17.35L23.99 17.35L23.99 17.36L23.98 17.36L23.98 17.37L23.98 17.37L23.97 17.38L23.97 17.38L23.97 17.39L23.96 17.39L23.96 17.4L23.96 17.4L23.95 17.4L23.95 17.41L23.94 17.41L23.94 17.41L23.93 17.42L23.93 17.42L23.92 17.42L23.92 17.43L23.91 17.43L23.91 17.43L23.9 17.43L23.9 17.44L23.89 17.44L23.88 17.44L23.88 17.44L23.87 17.44L23.87 17.44L23.86 17.44L23.85 17.44L23.85 17.44L20.78 17.44L20.78 20.43L20.78 20.44L20.78 20.44L20.78 20.45L20.78 20.45L20.78 20.46L20.78 20.47L20.78 20.47L20.78 20.48L20.77 20.48L20.77 20.49L20.77 20.49L20.77 20.5L20.76 20.5L20.76 20.51L20.76 20.51L20.75 20.52L20.75 20.52L20.75 20.53L20.74 20.53L20.74 20.54L20.74 20.54L20.73 20.54L20.73 20.55L20.72 20.55L20.72 20.55L20.71 20.56L20.71 20.56L20.7 20.56L20.7 20.56L20.69 20.57L20.69 20.57L20.68 20.57L20.67 20.57L20.67 20.57L20.66 20.58L20.66 20.58L20.65 20.58L20.64 20.58L20.64 20.58L20.63 20.58L18.18 20.58L18.18 20.58L18.17 20.58L18.16 20.58L18.16 20.58L18.15 20.58L18.14 20.57L18.14 20.57L18.13 20.57L18.13 20.57L18.12 20.57L18.12 20.56L18.11 20.56L18.11 20.56L18.1 20.56L18.1 20.55L18.09 20.55L18.09 20.55L18.08 20.54L18.08 20.54L18.07 20.54L18.07 20.53L18.07 20.53L18.06 20.52L18.06 20.52L18.05 20.51L18.05 20.51L18.05 20.5L18.05 20.5L18.04 20.49L18.04 20.49L18.04 20.48L18.04 20.48L18.03 20.47L18.03 20.47L18.03 20.46L18.03 20.45L18.03 20.45L18.03 20.44L18.03 20.44L18.03 20.43L18.03 17.44L14.97 17.44L14.96 17.44L14.95 17.44L14.95 17.44L14.94 17.44L14.94 17.44L14.93 17.44L14.92 17.44L14.92 17.44L14.91 17.43L14.91 17.43L14.9 17.43L14.9 17.43L14.89 17.42L14.89 17.42L14.88 17.42L14.88 17.41L14.87 17.41L14.87 17.41L14.86 17.4L14.86 17.4L14.85 17.4L14.85 17.39L14.85 17.39L14.84 17.38L14.84 17.38L14.84 17.37L14.83 17.37L14.83 17.36L14.83 17.36L14.82 17.35L14.82 17.35L14.82 17.34L14.82 17.34L14.82 17.33L14.82 17.32L14.81 17.32L14.81 17.31L14.81 17.31L14.81 17.3L14.81 17.29L14.81 14.9L14.81 14.9L14.81 14.89L14.81 14.89L14.81 14.88L14.82 14.87L14.82 14.87L14.82 14.86L14.82 14.86L14.82 14.85L14.82 14.85L14.83 14.84L14.83 14.84L14.83 14.83L14.84 14.83L14.84 14.82L14.84 14.82L14.85 14.81L14.85 14.81L14.85 14.8L14.86 14.8L14.86 14.79L14.87 14.79L14.87 14.79L14.88 14.78L14.88 14.78L14.89 14.78L14.89 14.77L14.9 14.77L14.9 14.77L14.91 14.77L14.91 14.76L14.92 14.76L14.92 14.76L14.93 14.76L14.94 14.76L14.94 14.76L14.95 14.76L14.95 14.76L14.96 14.76L14.97 14.76L18.03 14.76L18.03 11.77L18.03 11.76L18.03 11.76L18.03 11.75L18.03 11.74L18.03 11.74L18.03 11.73L18.03 11.73L18.04 11.72L18.04 11.72L18.04 11.71L18.04 11.71L18.05 11.7L18.05 11.69L18.05 11.69L18.05 11.69L18.06 11.68L18.06 11.68L18.07 11.67L18.07 11.67L18.07 11.66L18.08 11.66L18.08 11.66L18.09 11.65L18.09 11.65L18.1 11.64L18.1 11.64L18.11 11.64L18.11 11.64L18.12 11.63L18.12 11.63L18.13 11.63L18.13 11.63L18.14 11.63L18.14 11.62L18.15 11.62L18.16 11.62L18.16 11.62L18.17 11.62L18.18 11.62L18.18 11.62L20.63 11.62L20.64 11.62L20.64 11.62L20.64 11.62L20.65 11.62ZM10.9 12.66L4.02 8.8L4.02 16.48L10.9 20.35L10.9 20.35L10.9 12.66ZM12.08 10.65L14.24 9.45L18.88 6.84L12.05 3L12.05 10.68L12.05 10.68L12.05 10.68L12.08 10.65Z" id="b1VxO29Ow5"></path></defs><g><g><g><use xlink:href="#b1VxO29Ow5" opacity="1" fill="#FFFFFF" fill-opacity="1"></use><g><use xlink:href="#b1VxO29Ow5" opacity="1" fill-opacity="0" stroke="#000000" stroke-width="1" stroke-opacity="0"></use></g></g></g></g></svg>
