<?xml version="1.0" encoding="UTF-8" standalone="no"?>
<!DOCTYPE svg PUBLIC "-//W3C//DTD SVG 1.1//EN" "http://www.w3.org/Graphics/SVG/1.1/DTD/svg11.dtd">
<svg version="1.1" xmlns="http://www.w3.org/2000/svg" xmlns:xlink="http://www.w3.org/1999/xlink" preserveAspectRatio="xMidYMid meet" viewBox="0 0 24 24" width="24" height="24"><defs><path d="M17.87 7C17.94 7 18 7.06 18 7.14C18 7.51 18 8.49 18 8.86C18 8.94 17.94 9 17.87 9C15.49 9 8.51 9 6.14 9C6.07 9 6 8.94 6 8.86C6 8.49 6 7.51 6 7.14C6 7.06 6.07 7 6.14 7C8.51 7 15.49 7 17.87 7Z" id="c9ZzQtDm"></path><path d="M16.74 10.15L16.85 10.26L16.93 10.38L16.98 10.53L17 10.69L17 19.31L16.98 19.47L16.93 19.61L16.85 19.74L16.74 19.85L16.61 19.93L16.47 19.98L16.31 20L7.69 20L7.53 19.98L7.39 19.93L7.26 19.85L7.15 19.74L7.07 19.61L7.02 19.47L7 19.31L7 10.69L7.02 10.53L7.07 10.38L7.15 10.26L7.26 10.15L7.39 10.07L7.53 10.02L7.69 10L16.31 10L16.47 10.02L16.61 10.07L16.61 10.07L16.74 10.15ZM14.42 12.17L14.3 12.36L14.25 12.6L14.25 17.4L14.3 17.64L14.42 17.82L14.61 17.95L14.85 18L15.15 18L15.39 17.95L15.58 17.82L15.7 17.64L15.75 17.4L15.75 12.6L15.7 12.36L15.58 12.17L15.39 12.05L15.15 12L14.85 12L14.61 12.05L14.61 12.05L14.42 12.17ZM8.42 12.17L8.3 12.36L8.25 12.6L8.25 17.4L8.3 17.64L8.42 17.82L8.61 17.95L8.85 18L9.15 18L9.39 17.95L9.58 17.82L9.7 17.64L9.75 17.4L9.75 12.6L9.7 12.36L9.58 12.17L9.39 12.05L9.15 12L8.85 12L8.61 12.05L8.61 12.05L8.42 12.17ZM11.43 12.17L11.3 12.36L11.25 12.6L11.25 17.4L11.3 17.64L11.43 17.82L11.62 17.95L11.85 18L12.16 18L12.39 17.95L12.58 17.82L12.71 17.64L12.75 17.4L12.75 12.6L12.71 12.36L12.58 12.17L12.39 12.05L12.16 12L11.85 12L11.62 12.05L11.62 12.05L11.43 12.17Z" id="bfKNttmfB"></path><path d="M14.86 4C14.94 4 15 4.06 15 4.14C15 4.51 15 5.49 15 5.86C15 5.94 14.94 6 14.86 6C13.69 6 10.31 6 9.14 6C9.06 6 9 5.94 9 5.86C9 5.49 9 4.51 9 4.14C9 4.06 9.06 4 9.14 4C10.31 4 13.69 4 14.86 4Z" id="a5oNklUZLD"></path></defs><g><g><g><use xlink:href="#c9ZzQtDm" opacity="1" fill="#000000" fill-opacity="1"></use></g><g><use xlink:href="#bfKNttmfB" opacity="1" fill="#000000" fill-opacity="1"></use></g><g><use xlink:href="#a5oNklUZLD" opacity="1" fill="#000000" fill-opacity="1"></use></g></g></g></svg>